<?xml version="1.0" standalone="no"?>
<!DOCTYPE svg PUBLIC "-//W3C//DTD SVG 20010904//EN"
 "http://www.w3.org/TR/2001/REC-SVG-20010904/DTD/svg10.dtd">
<svg version="1.0" xmlns="http://www.w3.org/2000/svg"
    width="240.000000pt" height="240.000000pt" viewBox="0 0 1024.000000 1024.000000"
    preserveAspectRatio="xMidYMid meet">

	<g transform="translate(0.000000,1024.000000) scale(0.100000,-0.100000)" fill="#000000" stroke="none">
		<path d="M3117 8178 c-264 -381 -285 -413 -270 -417 9 -1 168 10 355 25 233
                19 337 31 334 39 -3 8 -329 420 -351 443 -2 2 -32 -39 -68 -90z"/>
		<path d="M3207 7735 c-306 -24 -412 -36 -425 -47 -125 -106 -523 -446 -541
                -463 l-24 -23 64 -206 c35 -113 67 -206 71 -206 4 0 8 53 8 118 0 64 3 127 6
                140 4 12 102 109 219 215 l212 194 243 6 c134 4 319 7 412 7 l168 0 240 -177
                c132 -98 242 -185 244 -193 2 -8 10 -49 17 -90 6 -41 14 -70 15 -65 9 25 71
                381 68 386 -4 7 -113 93 -416 330 -77 60 -147 108 -156 108 -9 -1 -200 -16
                -425 -34z"/>
		<path d="M2825 7396 c-16 -8 -52 -36 -78 -64 l-49 -49 26 -26 c19 -19 26 -37
                26 -65 0 -48 -43 -135 -78 -158 -62 -41 -122 -8 -122 67 0 21 -3 39 -7 39 -5
                -1 -33 -24 -65 -53 l-56 -52 -7 -144 -6 -144 23 15 c13 8 100 65 194 126 l171
                112 402 0 c334 0 407 -2 430 -15 16 -8 131 -75 256 -150 124 -74 229 -135 232
                -135 6 0 -1 42 -37 230 -25 125 -32 148 -55 167 -32 28 -45 29 -45 4 0 -10
                -10 -31 -22 -46 -18 -23 -26 -26 -55 -22 -93 16 -171 146 -132 220 10 18 8 25
                -22 50 -19 15 -60 46 -93 68 l-58 39 -135 0 -134 0 20 -29 c51 -71 1 -168 -91
                -178 -57 -7 -112 11 -138 44 -27 34 -26 96 1 134 l20 29 -143 0 c-98 -1 -152
                -5 -173 -14z"/>
		<path d="M3178 7385 c-52 -29 -62 -78 -25 -120 58 -67 187 -25 187 60 0 8 -10
                26 -23 40 -28 34 -98 43 -139 20z"/>
		<path d="M3800 7235 c-19 -23 4 -91 45 -132 38 -38 91 -46 97 -15 9 38 -12 88
                -51 125 -43 40 -71 46 -91 22z"/>
		<path d="M2628 7213 c-67 -70 -63 -176 6 -159 49 12 95 112 75 162 -12 33 -49
                31 -81 -3z"/>
		<path d="M2805 6938 c-11 -6 -104 -66 -207 -134 l-186 -122 -6 -64 c-6 -61
                -39 -891 -52 -1293 -4 -110 -11 -210 -15 -222 -5 -14 -35 -36 -79 -58 -38 -19
                -70 -39 -69 -43 1 -4 25 -29 54 -55 l53 -48 150 75 c405 203 921 373 1393 460
                337 62 566 85 914 93 640 14 1239 -76 1833 -274 293 -97 752 -296 924 -399
                l56 -34 128 12 129 13 -95 61 c-103 67 -229 132 -469 243 -471 219 -964 374
                -1376 436 -93 14 -187 28 -207 31 -35 5 -44 16 -246 312 -115 169 -302 447
                -417 617 -114 171 -213 316 -220 323 -10 11 -64 -4 -306 -88 -162 -55 -298
                -105 -303 -110 -12 -12 45 -360 64 -380 12 -13 1082 -528 1125 -542 6 -2 11 2
                12 7 3 16 -648 965 -662 965 -7 0 -120 -34 -250 -75 -238 -75 -267 -83 -250
                -66 11 10 489 161 508 161 7 0 161 -220 343 -488 388 -571 408 -601 403 -606
                -2 -2 -51 2 -109 8 l-105 13 -203 112 c-112 62 -205 111 -207 109 -2 -2 5 -44
                15 -93 26 -123 28 -117 -27 -113 l-48 3 -18 110 c-10 61 -22 113 -25 117 -10
                10 -336 157 -340 153 -2 -2 9 -91 23 -200 15 -108 25 -198 23 -200 -6 -6 -126
                -10 -132 -5 -6 7 -12 34 -111 559 -41 219 -80 400 -87 406 -7 6 -128 79 -268
                162 l-255 151 -390 5 c-267 4 -397 2 -410 -5z m775 -335 c0 -10 7 -117 15
                -238 8 -121 19 -310 25 -420 6 -110 13 -224 16 -253 l5 -52 112 6 c62 4 115 9
                119 13 4 4 1 67 -7 141 -8 74 -23 227 -35 340 -11 113 -25 249 -31 303 -6 55
                -8 101 -6 104 4 3 268 -172 306 -203 4 -4 10 -39 42 -249 55 -367 67 -450 65
                -452 0 0 -12 -3 -26 -5 -23 -3 -25 1 -36 72 -7 41 -15 101 -19 132 -6 52 -10
                59 -41 79 -19 12 -37 19 -40 16 -3 -3 1 -72 10 -153 17 -151 14 -169 -20 -162
                -17 3 -21 23 -36 163 -9 88 -17 168 -17 177 -1 16 -77 76 -85 67 -2 -2 0 -35
                5 -74 23 -210 38 -322 44 -336 11 -29 -64 -38 -737 -79 -97 -7 -207 -15 -245
                -18 l-68 -7 3 -85 c3 -91 -1 -104 -35 -114 -22 -7 -22 -5 -25 93 l-3 101 -190
                -105 c-104 -57 -194 -105 -199 -105 -5 0 -6 84 -2 198 4 108 11 332 16 497 l9
                300 37 33 c63 55 265 204 270 200 2 -3 0 -220 -5 -484 -5 -263 -7 -480 -6
                -482 2 -2 14 2 27 9 12 7 73 18 133 24 l110 10 -4 496 c-2 273 -1 501 3 508 5
                8 85 11 277 11 249 0 269 -1 269 -17z m1372 -346 c108 -156 200 -290 203 -300
                5 -10 -149 58 -427 189 -238 113 -441 208 -450 211 -10 3 -18 8 -18 12 0 4 64
                29 143 56 78 27 183 63 232 81 50 18 97 33 105 33 8 0 102 -125 212 -282z
                m-472 -248 c13 -9 12 -10 -2 -5 -22 7 -22 19 2 -154 11 -79 19 -153 19 -164
                -1 -25 -47 267 -48 307 -1 29 5 33 29 16z m141 -59 c62 -28 115 -53 118 -55 6
                -7 30 -147 29 -175 0 -14 -8 18 -17 70 -18 108 -3 92 -171 170 -47 21 -82 39
                -79 39 4 1 58 -22 120 -49z m-65 -18 c-2 -2 -14 2 -26 8 -12 6 -24 9 -27 7 -3
                -3 0 -37 6 -76 6 -38 10 -80 10 -93 -2 -26 -27 123 -28 164 l-1 28 35 -17 c19
                -9 33 -18 31 -21z m93 -33 l68 -30 15 -89 c8 -49 11 -87 7 -85 -4 3 -10 26
                -13 52 -17 120 -12 112 -90 148 -39 18 -68 34 -64 34 4 1 39 -13 77 -30z m267
                -71 c4 -6 3 -8 -4 -4 -5 3 -13 0 -15 -6 -3 -8 -6 -6 -6 5 -1 19 14 23 25 5z
                m249 -135 c11 -7 15 -13 9 -13 -12 0 -225 118 -239 132 -10 11 196 -95 230
                -119z m-241 22 c4 -26 3 -35 -3 -25 -5 8 -12 35 -15 60 -7 55 8 24 18 -35z
                m26 38 c0 -32 -5 -28 -14 10 -4 19 -3 26 4 22 5 -3 10 -18 10 -32z m155 -64
                c5 -5 6 -9 1 -9 -10 0 -146 81 -146 87 0 5 130 -65 145 -78z m-572 18 c3 -22
                2 -35 -4 -32 -5 4 -9 22 -9 42 0 45 5 40 13 -10z m424 -9 c-3 -8 -6 -5 -6 6
                -1 11 2 17 5 13 3 -3 4 -12 1 -19z"/>
		<path d="M3090 6335 l0 -226 98 3 97 3 -4 125 c-2 69 -6 168 -10 220 l-6 95
                -87 3 -88 3 0 -226z"/>
		<path d="M3335 6348 c4 -117 10 -217 14 -221 4 -4 50 -6 102 -5 l94 3 -3 128
                c-2 70 -7 167 -10 215 l-7 87 -99 3 -98 3 7 -213z"/>
		<path d="M3851 6414 c0 -22 8 -101 17 -177 l17 -138 37 -21 c21 -12 40 -19 43
                -16 3 3 -3 76 -12 163 l-18 158 -42 35 -43 35 1 -39z"/>
		<path d="M2668 6378 l-36 -33 -7 -172 c-4 -111 -3 -173 4 -173 5 0 23 8 39 17
                30 17 31 20 37 118 4 55 5 140 3 188 l-3 89 -37 -34z"/>
		<path d="M4000 6313 c0 -10 7 -79 15 -153 8 -74 15 -137 15 -140 0 -8 69 -44
                74 -39 2 2 -5 72 -15 154 -18 140 -21 151 -47 172 -33 28 -42 29 -42 6z"/>
		<path d="M2546 6289 l-26 -20 0 -170 c0 -93 4 -169 8 -169 5 0 17 9 27 20 14
                16 18 46 23 190 3 93 3 170 0 170 -3 0 -17 -9 -32 -21z"/>
		<path d="M3412 6063 l-63 -4 7 -192 c4 -106 10 -203 14 -217 6 -25 7 -25 101
                -22 52 2 98 7 103 12 4 4 2 101 -5 217 l-14 208 -40 1 c-22 0 -68 -1 -103 -3z"/>
		<path d="M3160 6051 l-65 -6 0 -215 0 -215 35 -3 c19 -2 68 -1 108 3 l73 7 -7
                156 c-4 87 -9 184 -13 217 -7 69 -5 68 -131 56z"/>
		<path d="M2659 5954 l-36 -22 -6 -108 c-4 -59 -7 -163 -7 -231 l0 -123 39 20
                39 19 7 93 c3 51 5 156 3 234 l-3 141 -36 -23z"/>
		<path d="M2526 5868 c-16 -27 -34 -458 -19 -458 5 0 19 9 31 20 19 18 22 31
               22 98 0 42 3 141 7 220 5 127 4 142 -10 142 -9 0 -23 -10 -31 -22z"/>
		<path d="M4597 6462 c-11 -12 -17 -36 -17 -69 0 -103 0 -103 127 -172 63 -35
                116 -61 118 -59 2 2 0 50 -4 106 -9 120 -27 157 -79 158 -21 0 -38 9 -52 27
                -25 32 -69 36 -93 9z m77 -24 c16 -22 24 -168 10 -168 -4 0 -22 9 -40 21 -33
                20 -34 22 -34 89 0 67 5 77 37 79 6 1 19 -9 27 -21z m57 -62 c-19 -22 -3 -124
                23 -141 31 -22 35 -19 39 33 3 46 3 46 5 -10 1 -32 0 -58 -3 -58 -3 0 -20 10
                -39 22 -30 20 -34 28 -40 82 -5 53 3 86 21 86 3 0 0 -6 -6 -14z m49 -1 c6 -8
                10 -20 7 -27 -4 -8 -6 -7 -6 4 -1 9 -9 22 -18 27 -10 6 -13 11 -7 11 6 0 17
                -7 24 -15z"/>
		<path d="M4627 6443 c-4 -3 -7 -32 -7 -64 0 -51 3 -60 28 -79 l27 -22 3 66 c2
                36 -2 75 -8 86 -11 20 -31 26 -43 13z"/>
		<path d="M6220 6132 c0 -15 -58 -33 -86 -26 -26 7 -27 6 -21 -28 4 -27 1 -37
                -14 -46 -16 -10 -24 -10 -42 3 -26 19 -57 20 -57 2 0 -9 -10 -12 -30 -9 -16 2
                -38 1 -47 -3 -10 -4 -25 -9 -33 -10 -8 -1 -23 -6 -32 -10 -18 -7 -19 -4 -22
                35 -2 24 -62 24 -101 1 -18 -11 -42 -17 -53 -14 -13 3 -28 -3 -42 -17 -16 -16
                -25 -19 -33 -11 -15 15 -69 14 -91 -2 -18 -13 -12 -23 79 -148 54 -74 102
                -137 108 -140 5 -4 46 -10 91 -13 169 -15 412 -59 641 -118 l91 -24 36 26 c20
                14 41 35 47 48 6 12 15 22 20 22 5 0 36 26 68 58 33 31 82 75 111 97 29 22 55
                48 58 57 3 10 10 18 15 18 5 0 9 8 10 18 0 9 3 12 5 5 3 -7 12 -9 19 -6 12 4
                12 7 0 19 -15 15 -69 9 -60 -6 3 -5 -4 -6 -15 -3 -14 4 -20 14 -20 36 0 29 -1
                30 -19 13 -21 -19 -41 -14 -41 9 0 23 -20 28 -65 15 -42 -12 -45 -11 -91 24
                -52 40 -71 44 -89 19 -16 -21 -43 -11 -55 22 -11 30 -40 33 -47 5 -3 -11 -10
                -20 -15 -20 -5 0 -6 4 -3 10 7 12 -30 21 -69 18 -22 -2 -33 3 -41 19 -22 43
                -65 80 -65 55z"/>
		<path d="M6928 5923 c7 -3 16 -2 19 1 4 3 -2 6 -13 5 -11 0 -14 -3 -6 -6z"/>
		<path d="M8335 5488 c20 -90 65 -154 253 -358 56 -60 92 -108 90 -118 -3 -16
                -65 -45 -119 -56 -36 -8 -44 -34 -21 -65 35 -47 67 -63 137 -69 58 -4 70 -2
                81 13 8 10 11 28 8 39 -3 13 6 38 25 66 16 26 32 67 37 95 4 28 13 60 21 71
                13 21 12 22 -36 34 -87 21 -191 101 -371 284 -51 53 -98 96 -103 96 -5 0 -5
                -15 -2 -32z"/>
		<path d="M7731 5498 c-26 -6 -39 -13 -32 -17 7 -5 3 -12 -14 -21 -14 -7 -25
                -19 -25 -26 0 -6 -9 -14 -21 -17 -12 -3 -18 -10 -15 -15 5 -9 -29 -26 -46 -23
                -5 1 -8 -8 -8 -19 0 -11 -8 -24 -17 -27 -23 -8 -79 -65 -75 -76 1 -5 -1 -6 -6
                -3 -4 3 -20 -5 -34 -17 l-26 -23 141 -73 c78 -41 193 -103 255 -138 62 -35
                117 -61 122 -58 20 13 50 86 54 132 2 27 10 74 17 105 14 62 3 108 -25 108 -9
                0 -21 21 -30 55 -12 40 -20 53 -31 49 -8 -4 -15 -10 -15 -15 0 -15 -29 -10
                -38 8 -7 12 -17 14 -41 10 -17 -4 -31 -4 -31 -1 0 2 11 27 25 54 14 27 25 52
                25 55 0 8 -59 4 -109 -7z"/>
		<path d="M1532 5423 c-23 -27 -159 -167 -301 -313 l-259 -265 146 -5 147 -5 3
                -783 c2 -692 0 -788 -13 -816 -16 -34 -50 -56 -85 -56 -15 0 -20 -7 -20 -25
                l0 -25 822 2 823 3 57 200 c32 110 56 206 53 213 -7 18 -50 15 -67 -5 -8 -10
                -26 -40 -39 -67 -13 -28 -47 -75 -76 -106 -105 -114 -229 -145 -548 -137 -210
                5 -251 14 -263 55 -4 15 -7 369 -7 787 l0 760 151 5 151 5 -306 313 c-168 171
                -311 312 -317 312 -5 0 -29 -21 -52 -47z"/>
		<path d="M5240 4752 c-6 -2 -10 -14 -10 -26 0 -20 7 -24 72 -34 82 -12 118
                -34 135 -83 9 -25 12 -212 12 -704 1 -508 4 -674 13 -683 7 -7 26 -12 42 -12
                42 0 54 -10 58 -45 l3 -30 230 -3 c413 -5 610 37 822 175 132 86 217 196 277
                356 30 80 30 86 31 262 0 147 -3 191 -18 240 -22 71 -92 198 -150 273 -79 103
                -224 198 -387 252 -154 52 -169 53 -658 59 -254 3 -467 5 -472 3z m840 -114
                c106 -18 242 -71 314 -122 121 -86 185 -195 224 -380 20 -95 26 -151 26 -261
                1 -131 -1 -145 -30 -225 -56 -157 -140 -254 -286 -330 -119 -62 -206 -81 -395
                -87 l-161 -6 -26 26 -26 26 0 659 c0 748 -6 698 81 712 54 9 191 3 279 -12z"/>
		<path d="M7685 4750 c-185 -18 -323 -78 -453 -195 -152 -137 -238 -315 -262
                -542 -14 -127 -2 -270 32 -383 71 -232 265 -442 474 -514 117 -39 196 -49 360
                -43 165 5 230 19 339 71 196 93 355 289 417 514 29 106 32 393 4 492 -23 83
                -58 167 -97 230 -26 43 -35 50 -62 50 -21 0 -80 26 -170 75 -141 77 -152 81
                -176 66 -12 -7 -4 -21 35 -64 66 -72 127 -176 153 -262 72 -233 67 -474 -13
                -700 -71 -199 -162 -299 -322 -356 -206 -73 -480 35 -577 228 -33 65 -82 221
                -98 313 -49 279 34 630 187 785 94 95 257 157 372 140 58 -9 130 18 139 52 7
                30 -9 43 -53 43 -17 0 -58 2 -90 4 -32 2 -95 1 -139 -4z"/>
		<path d="M2623 4734 c-9 -23 5 -30 76 -43 35 -6 75 -18 88 -27 52 -33 53 -46
                53 -554 0 -306 4 -478 10 -491 8 -15 22 -19 61 -19 36 0 51 -4 56 -16 3 -9
                -20 -108 -52 -219 -32 -112 -55 -210 -52 -219 6 -15 54 -16 489 -14 l483 3 5
                34 c5 32 8 34 73 50 113 29 128 49 177 224 24 86 22 107 -12 107 -32 0 -40 -8
                -69 -71 -61 -126 -182 -217 -319 -239 -85 -13 -454 -13 -502 0 -20 6 -46 22
                -58 37 -19 25 -20 39 -20 334 l0 309 26 6 c14 4 132 4 262 2 313 -7 327 -13
                363 -157 17 -67 34 -89 63 -78 14 6 16 36 16 286 0 273 0 280 -20 286 -25 8
                -50 -10 -50 -36 0 -28 -36 -118 -57 -141 -39 -43 -76 -50 -324 -55 -170 -4
                -241 -2 -257 6 -22 12 -22 14 -22 296 0 250 2 286 16 300 15 15 49 16 318 13
                293 -3 302 -4 349 -27 58 -28 89 -73 113 -158 16 -58 20 -63 44 -63 18 0 29 6
                32 18 2 9 2 87 -1 172 l-6 155 -673 3 c-604 2 -673 1 -679 -14z"/>
		<path d="M4108 4744 c-5 -4 -8 -263 -8 -574 0 -490 2 -569 15 -580 8 -7 21
                -10 28 -7 8 3 20 2 27 -3 18 -11 -81 -318 -113 -348 -27 -25 -69 -42 -107 -42
                -44 0 -60 -10 -60 -36 l0 -24 350 0 350 0 0 24 c0 27 -16 36 -66 36 -48 0
                -110 27 -131 58 -16 25 -18 54 -18 327 l0 300 62 0 c47 0 66 -5 83 -20 13 -11
                144 -171 293 -355 148 -184 279 -343 290 -353 18 -16 40 -17 221 -15 187 3
                201 4 204 22 5 24 -14 36 -56 36 -45 0 -112 34 -154 78 -20 20 -147 172 -282
                337 -203 246 -244 301 -229 306 10 4 50 14 88 23 149 36 257 111 308 217 97
                197 17 418 -186 515 -150 71 -193 77 -567 82 -184 2 -338 0 -342 -4z m596
                -111 c118 -29 194 -85 233 -171 23 -53 23 -191 -1 -260 -47 -138 -207 -214
                -466 -224 l-95 -3 -3 311 c-2 300 -2 312 18 337 15 19 32 27 63 30 64 6 185
                -3 251 -20z"/>
		<path d="M8255 4723 c-51 -12 -225 -76 -272 -99 -56 -28 -58 -38 -15 -77 19
                -18 21 -17 47 17 37 49 89 80 123 73 15 -3 84 -38 152 -78 126 -72 200 -97
                200 -67 0 8 -10 23 -21 34 -12 10 -48 53 -79 95 -49 63 -100 113 -112 108 -2
                -1 -12 -3 -23 -6z"/>
		<path d="M4605 2800 c-3 -5 -1 -10 4 -10 6 0 11 5 11 10 0 6 -2 10 -4 10 -3 0
                -8 -4 -11 -10z"/>
		<path d="M7198 2483 c7 -3 16 -2 19 1 4 3 -2 6 -13 5 -11 0 -14 -3 -6 -6z"/>
		<path d="M5229 2207 c-6 -13 -26 -31 -44 -41 -33 -18 -65 -67 -65 -101 0 -32
                33 -86 61 -100 105 -55 211 60 150 162 -11 18 -35 37 -55 44 -30 11 -33 14
                -19 24 9 7 13 17 9 23 -11 19 -25 14 -37 -11z m36 -73 c18 -7 45 -55 45 -79 0
                -24 -46 -65 -73 -65 -63 0 -91 89 -41 129 28 22 42 25 69 15z"/>
		<path d="M3052 2172 c-9 -6 -12 -36 -10 -113 l3 -104 70 2 c64 1 72 4 97 32
                35 40 39 105 8 144 -30 38 -132 61 -168 39z m132 -64 c9 -12 16 -33 16 -46 0
                -33 -43 -72 -80 -72 l-30 0 0 70 0 70 39 0 c30 0 44 -6 55 -22z"/>
		<path d="M3567 2174 c-4 -4 -7 -56 -7 -116 0 -99 2 -109 18 -106 15 3 17 16
                17 112 0 102 -7 130 -28 110z"/>
		<path d="M3807 2174 c-4 -4 -7 -34 -7 -67 l0 -59 -69 61 c-38 34 -72 61 -75
                61 -4 0 -5 -48 -4 -107 3 -93 5 -108 21 -111 15 -3 17 5 17 57 0 37 4 61 11
                61 6 0 36 -25 68 -55 32 -30 61 -55 65 -55 4 0 5 48 4 107 -3 98 -11 127 -31
                107z"/>
		<path d="M3907 2174 c-4 -4 -7 -56 -7 -116 0 -99 2 -109 18 -106 15 3 17 16
                17 112 0 102 -7 130 -28 110z"/>
		<path d="M4020 2168 c-18 -10 -26 -23 -28 -49 -4 -43 10 -57 75 -73 50 -13 61
                -31 31 -50 -12 -7 -27 -7 -52 2 -38 14 -56 10 -56 -13 0 -20 71 -39 114 -31
                38 7 56 29 56 70 0 30 -26 49 -87 66 -25 6 -43 17 -43 25 0 21 38 28 72 14 25
                -10 31 -10 39 2 21 34 -72 62 -121 37z"/>
		<path d="M4177 2173 c-15 -15 -5 -32 21 -35 27 -3 27 -4 32 -93 4 -74 8 -90
                22 -93 15 -3 18 8 20 90 l3 93 33 3 c34 3 44 25 16 36 -21 8 -139 8 -147 -1z"/>
		<path d="M4365 2168 c-3 -8 -4 -59 -3 -114 3 -91 5 -99 23 -99 15 0 21 8 23
                33 4 44 33 43 68 -3 14 -19 35 -35 45 -35 24 0 24 15 -1 47 -20 25 -20 25 0
                50 25 32 26 74 2 103 -23 28 -148 43 -157 18z m119 -44 c9 -8 16 -19 16 -24 0
                -18 -33 -40 -61 -40 -26 0 -29 3 -29 33 0 19 3 37 7 40 12 13 51 7 67 -9z"/>
		<path d="M4843 2160 c-40 -24 -53 -48 -53 -99 0 -31 7 -49 29 -73 26 -29 35
                -33 80 -33 42 0 55 5 78 27 24 24 25 28 9 34 -9 4 -32 -1 -51 -12 -28 -15 -38
                -16 -59 -6 -57 25 -58 101 -4 132 25 13 31 13 62 -4 41 -22 76 -16 55 10 -18
                22 -64 44 -91 44 -13 0 -37 -9 -55 -20z"/>
		<path d="M5045 2168 c-3 -8 -4 -59 -3 -114 2 -80 6 -99 18 -99 12 0 15 19 15
                109 0 79 -4 111 -12 113 -7 3 -15 -2 -18 -9z"/>
		<path d="M5547 2174 c-4 -4 -7 -34 -7 -66 0 -32 -4 -58 -8 -58 -4 0 -34 27
                -67 60 -33 33 -63 60 -67 60 -4 0 -8 -50 -8 -111 0 -100 2 -110 18 -107 14 3
                18 16 20 66 l3 63 68 -61 c37 -33 71 -60 75 -60 4 0 5 48 4 107 -3 98 -11 127
                -31 107z"/>
		<path d="M5752 2160 c-12 -12 -22 -27 -22 -35 0 -20 36 -19 44 1 9 24 50 14
                54 -15 3 -18 -8 -34 -47 -68 -36 -31 -51 -52 -51 -69 0 -24 1 -25 72 -22 60 2
                73 6 76 21 3 14 -4 17 -37 17 -47 0 -52 12 -15 36 27 18 54 63 54 89 0 26 -46
                65 -78 65 -15 0 -38 -9 -50 -20z"/>
		<path d="M5950 2153 c-76 -68 -33 -203 63 -203 47 0 97 60 97 115 0 34 -24 80
                -52 99 -34 24 -74 20 -108 -11z m88 -29 c42 -29 22 -134 -26 -134 -51 0 -74
                103 -30 134 12 9 25 16 28 16 3 0 16 -7 28 -16z"/>
		<path d="M6164 2155 c-37 -37 -12 -64 27 -29 22 20 59 10 59 -16 0 -10 -25
                -41 -56 -68 -78 -70 -73 -87 26 -87 63 0 75 3 78 18 3 14 -4 17 -44 17 l-48 0
                42 43 c32 32 42 51 42 74 0 67 -78 96 -126 48z"/>
		<path d="M6375 2168 c-23 -13 -35 -28 -35 -45 0 -19 37 -16 44 3 9 24 50 14
                54 -15 3 -18 -8 -34 -47 -68 -36 -31 -51 -52 -51 -69 0 -24 1 -25 72 -22 60 2
                73 6 76 21 3 14 -4 17 -37 17 -47 0 -52 12 -15 37 36 23 57 74 44 107 -16 42
                -64 57 -105 34z"/>
		<path d="M6676 2159 c-14 -11 -26 -27 -26 -35 0 -19 29 -18 51 2 21 19 46 13
                56 -13 5 -12 -9 -31 -51 -69 -80 -71 -76 -88 22 -92 67 -3 72 -1 72 18 0 17
                -6 20 -40 20 -22 0 -40 2 -40 4 0 2 18 22 40 44 49 49 54 90 14 121 -15 12
                -37 21 -49 21 -12 0 -34 -9 -49 -21z"/>
		<path d="M6894 2170 c-36 -14 -54 -50 -54 -108 0 -46 4 -58 29 -83 48 -47 116
                -38 146 21 51 99 -26 208 -121 170z m66 -40 c45 -24 32 -124 -16 -136 -55 -14
                -88 82 -44 126 23 23 33 24 60 10z"/>
		<path d="M7096 2159 c-14 -11 -26 -27 -26 -35 0 -19 29 -18 51 2 24 21 49 11
                49 -19 0 -16 -16 -37 -51 -66 -36 -31 -49 -49 -47 -65 3 -19 9 -21 73 -21 58
                0 70 3 73 18 3 14 -4 17 -37 17 -23 0 -41 3 -41 6 0 4 16 21 35 38 48 42 56
                86 22 120 -31 31 -65 33 -101 5z"/>
		<path d="M7282 2172 c-17 -11 -28 -107 -13 -116 6 -4 20 -2 31 4 41 22 80 -14
                58 -54 -11 -19 -40 -21 -68 -3 -17 10 -22 9 -30 -3 -13 -22 10 -41 58 -47 34
                -5 44 -1 66 20 28 28 33 56 15 90 -16 29 -28 37 -62 37 -22 0 -28 4 -25 18 2
                12 15 18 46 20 43 3 58 24 26 36 -22 9 -87 7 -102 -2z"/>
		<path d="M2847 2075 c-26 -52 -47 -102 -47 -110 0 -21 24 -19 45 5 13 14 31
                20 60 20 29 0 47 -6 60 -20 20 -23 45 -27 45 -7 0 17 -96 201 -107 204 -4 2
                -30 -40 -56 -92z m83 -37 c0 -4 -11 -8 -25 -8 -28 0 -30 3 -14 32 11 21 12 21
                25 3 8 -10 14 -22 14 -27z"/>
		<path d="M3282 2063 c2 -88 6 -108 18 -108 11 0 16 13 18 48 2 26 6 47 9 47 4
                0 19 -15 35 -32 l28 -33 30 33 c16 17 32 32 34 32 3 0 6 -21 8 -47 2 -35 7
                -48 18 -48 12 0 15 20 17 110 l3 110 -55 -60 -54 -60 -45 50 c-25 28 -45 53
                -46 58 0 4 -5 7 -10 7 -7 0 -10 -38 -8 -107z"/>
		<path d="M4610 2070 c-28 -55 -48 -105 -45 -110 9 -15 24 -12 42 10 13 15 30
                20 65 20 37 0 50 -4 58 -20 6 -11 20 -20 31 -20 17 0 19 4 13 23 -13 42 -94
                197 -103 197 -5 0 -32 -45 -61 -100z m74 -6 c10 -26 7 -34 -14 -34 -11 0 -20
                4 -20 9 0 17 12 41 20 41 4 0 11 -7 14 -16z"/>
		<path d="M6520 2071 c0 -18 6 -21 51 -21 43 0 50 3 47 18 -2 13 -15 18 -51 20
                -42 3 -47 1 -47 -17z"/>
	</g>
</svg>
